<mxfile host="app.diagrams.net" modified="2024-06-06T22:50:50.495Z" agent="Mozilla/5.0 (Windows NT 10.0; Win64; x64) AppleWebKit/537.36 (KHTML, like Gecko) Chrome/122.0.0.0 YaBrowser/24.4.0.0 Safari/537.36" etag="VniFqbtKfKczjv8HErV0" version="24.4.15" type="device">
  <diagram name="Страница — 1" id="3in5TvuiYgXTFB5qJ7NU">
    <mxGraphModel dx="4835" dy="1035" grid="1" gridSize="10" guides="1" tooltips="1" connect="1" arrows="1" fold="1" page="1" pageScale="1" pageWidth="827" pageHeight="1169" math="0" shadow="0">
      <root>
        <mxCell id="0" />
        <mxCell id="1" parent="0" />
        <mxCell id="OOdNx3U51LIYdZ--jJYg-4" style="edgeStyle=orthogonalEdgeStyle;rounded=0;orthogonalLoop=1;jettySize=auto;html=1;entryX=0.5;entryY=0;entryDx=0;entryDy=0;" edge="1" parent="1" source="OOdNx3U51LIYdZ--jJYg-1" target="OOdNx3U51LIYdZ--jJYg-5">
          <mxGeometry relative="1" as="geometry">
            <mxPoint x="342" y="1410" as="targetPoint" />
          </mxGeometry>
        </mxCell>
        <mxCell id="OOdNx3U51LIYdZ--jJYg-1" value="&lt;font style=&quot;font-size: 14px;&quot;&gt;!start([3,3,0,0,left],[0,0,3,3,rigth]&lt;/font&gt;" style="whiteSpace=wrap;html=1;" vertex="1" parent="1">
          <mxGeometry x="260" y="1220" width="164" height="70" as="geometry" />
        </mxCell>
        <mxCell id="OOdNx3U51LIYdZ--jJYg-2" value="" style="endArrow=none;dashed=1;html=1;dashPattern=1 3;strokeWidth=2;rounded=0;" edge="1" parent="1">
          <mxGeometry width="50" height="50" relative="1" as="geometry">
            <mxPoint x="-40" y="1360" as="sourcePoint" />
            <mxPoint x="880" y="1360" as="targetPoint" />
          </mxGeometry>
        </mxCell>
        <mxCell id="OOdNx3U51LIYdZ--jJYg-3" value="ИЛИ" style="text;html=1;align=center;verticalAlign=middle;resizable=0;points=[];autosize=1;strokeColor=none;fillColor=none;" vertex="1" parent="1">
          <mxGeometry x="-55" y="1328" width="50" height="30" as="geometry" />
        </mxCell>
        <mxCell id="OOdNx3U51LIYdZ--jJYg-14" style="edgeStyle=orthogonalEdgeStyle;rounded=0;orthogonalLoop=1;jettySize=auto;html=1;entryX=0.5;entryY=0;entryDx=0;entryDy=0;" edge="1" parent="1" source="OOdNx3U51LIYdZ--jJYg-5" target="OOdNx3U51LIYdZ--jJYg-18">
          <mxGeometry relative="1" as="geometry">
            <mxPoint x="342" y="1610" as="targetPoint" />
          </mxGeometry>
        </mxCell>
        <mxCell id="OOdNx3U51LIYdZ--jJYg-5" value="&lt;font style=&quot;font-size: 14px;&quot;&gt;!start([3,3,0,0,left],[0,0,3,3,rigth]&lt;/font&gt;" style="whiteSpace=wrap;html=1;" vertex="1" parent="1">
          <mxGeometry x="260" y="1390" width="164" height="70" as="geometry" />
        </mxCell>
        <mxCell id="OOdNx3U51LIYdZ--jJYg-10" value="" style="endArrow=none;dashed=1;html=1;dashPattern=1 3;strokeWidth=2;rounded=0;exitX=0.197;exitY=1.018;exitDx=0;exitDy=0;exitPerimeter=0;" edge="1" parent="1" source="OOdNx3U51LIYdZ--jJYg-11">
          <mxGeometry width="50" height="50" relative="1" as="geometry">
            <mxPoint x="-55" y="1510" as="sourcePoint" />
            <mxPoint x="880" y="1510" as="targetPoint" />
          </mxGeometry>
        </mxCell>
        <mxCell id="OOdNx3U51LIYdZ--jJYg-11" value="И" style="text;html=1;align=center;verticalAlign=middle;resizable=0;points=[];autosize=1;strokeColor=none;fillColor=none;" vertex="1" parent="1">
          <mxGeometry x="-45" y="1480" width="30" height="30" as="geometry" />
        </mxCell>
        <mxCell id="OOdNx3U51LIYdZ--jJYg-13" value="&lt;font style=&quot;text-align: left; text-wrap: nowrap; font-size: 15px;&quot;&gt;InitialState =&amp;nbsp;&lt;span style=&quot;text-wrap: wrap;&quot;&gt;[3,3,0,0,left]&lt;/span&gt;&lt;/font&gt;&lt;div style=&quot;text-align: left; text-wrap: nowrap; font-size: 15px;&quot;&gt;&lt;span style=&quot;text-wrap: wrap;&quot;&gt;FinalState = [&lt;/span&gt;&lt;span style=&quot;text-wrap: wrap; background-color: initial;&quot;&gt;0,0,3,3,right&lt;/span&gt;&lt;span style=&quot;text-wrap: wrap; background-color: initial;&quot;&gt;]&lt;/span&gt;&lt;/div&gt;" style="text;html=1;align=center;verticalAlign=middle;whiteSpace=wrap;rounded=0;" vertex="1" parent="1">
          <mxGeometry x="460" y="1358" width="240" height="80" as="geometry" />
        </mxCell>
        <mxCell id="OOdNx3U51LIYdZ--jJYg-21" style="edgeStyle=orthogonalEdgeStyle;rounded=0;orthogonalLoop=1;jettySize=auto;html=1;entryX=0.5;entryY=0;entryDx=0;entryDy=0;" edge="1" parent="1" source="OOdNx3U51LIYdZ--jJYg-18" target="OOdNx3U51LIYdZ--jJYg-22">
          <mxGeometry relative="1" as="geometry">
            <mxPoint x="344" y="1809.9999999999995" as="targetPoint" />
          </mxGeometry>
        </mxCell>
        <mxCell id="OOdNx3U51LIYdZ--jJYg-18" value="&lt;font style=&quot;font-size: 14px;&quot;&gt;!solve([3,3,0,0,left],[0,0,3,3,right],[[3,3,0,0,left]],[])&lt;/font&gt;" style="whiteSpace=wrap;html=1;" vertex="1" parent="1">
          <mxGeometry x="263" y="1540" width="160" height="80" as="geometry" />
        </mxCell>
        <mxCell id="OOdNx3U51LIYdZ--jJYg-19" value="" style="endArrow=none;dashed=1;html=1;dashPattern=1 3;strokeWidth=2;rounded=0;exitX=0.318;exitY=1.018;exitDx=0;exitDy=0;exitPerimeter=0;" edge="1" parent="1" source="OOdNx3U51LIYdZ--jJYg-20">
          <mxGeometry width="50" height="50" relative="1" as="geometry">
            <mxPoint x="-54" y="1670" as="sourcePoint" />
            <mxPoint x="880" y="1670" as="targetPoint" />
          </mxGeometry>
        </mxCell>
        <mxCell id="OOdNx3U51LIYdZ--jJYg-20" value="ИЛИ" style="text;html=1;align=center;verticalAlign=middle;resizable=0;points=[];autosize=1;strokeColor=none;fillColor=none;" vertex="1" parent="1">
          <mxGeometry x="-55" y="1640" width="50" height="30" as="geometry" />
        </mxCell>
        <mxCell id="OOdNx3U51LIYdZ--jJYg-32" style="rounded=0;orthogonalLoop=1;jettySize=auto;html=1;exitX=0.25;exitY=1;exitDx=0;exitDy=0;" edge="1" parent="1" source="OOdNx3U51LIYdZ--jJYg-22" target="OOdNx3U51LIYdZ--jJYg-29">
          <mxGeometry relative="1" as="geometry" />
        </mxCell>
        <mxCell id="OOdNx3U51LIYdZ--jJYg-34" style="edgeStyle=orthogonalEdgeStyle;rounded=0;orthogonalLoop=1;jettySize=auto;html=1;entryX=0.5;entryY=0;entryDx=0;entryDy=0;" edge="1" parent="1" source="OOdNx3U51LIYdZ--jJYg-22" target="OOdNx3U51LIYdZ--jJYg-30">
          <mxGeometry relative="1" as="geometry" />
        </mxCell>
        <mxCell id="OOdNx3U51LIYdZ--jJYg-35" style="rounded=0;orthogonalLoop=1;jettySize=auto;html=1;entryX=0.5;entryY=0;entryDx=0;entryDy=0;exitX=0.75;exitY=1;exitDx=0;exitDy=0;" edge="1" parent="1" source="OOdNx3U51LIYdZ--jJYg-22" target="OOdNx3U51LIYdZ--jJYg-31">
          <mxGeometry relative="1" as="geometry" />
        </mxCell>
        <mxCell id="OOdNx3U51LIYdZ--jJYg-22" value="&lt;font style=&quot;font-size: 14px;&quot;&gt;!solve([3,3,0,0,left],[0,0,3,3,right],[[3,3,0,0,left]],[])&lt;/font&gt;" style="whiteSpace=wrap;html=1;" vertex="1" parent="1">
          <mxGeometry x="263" y="1700" width="160" height="80" as="geometry" />
        </mxCell>
        <mxCell id="OOdNx3U51LIYdZ--jJYg-26" value="&lt;font style=&quot;font-size: 15px;&quot;&gt;CurrentState =&amp;nbsp;&lt;span style=&quot;text-align: left;&quot;&gt;[3,3,0,0,left]&lt;/span&gt;&lt;br&gt;FinalState =&amp;nbsp;&lt;span style=&quot;text-align: left;&quot;&gt;[&lt;/span&gt;&lt;span style=&quot;text-align: left; background-color: initial;&quot;&gt;0,0,3,3,right&lt;/span&gt;&lt;span style=&quot;text-align: left; background-color: initial;&quot;&gt;]&lt;/span&gt;&lt;br&gt;Visited =&amp;nbsp;[&lt;span style=&quot;text-align: left;&quot;&gt;[3,3,0,0,left]&lt;/span&gt;]&lt;br&gt;Path =&amp;nbsp;[]&lt;/font&gt;" style="text;html=1;align=center;verticalAlign=middle;whiteSpace=wrap;rounded=0;" vertex="1" parent="1">
          <mxGeometry x="422" y="1680" width="300" height="80" as="geometry" />
        </mxCell>
        <mxCell id="OOdNx3U51LIYdZ--jJYg-27" value="" style="endArrow=none;dashed=1;html=1;dashPattern=1 3;strokeWidth=2;rounded=0;" edge="1" parent="1">
          <mxGeometry width="50" height="50" relative="1" as="geometry">
            <mxPoint x="-40" y="1820" as="sourcePoint" />
            <mxPoint x="880" y="1820" as="targetPoint" />
          </mxGeometry>
        </mxCell>
        <mxCell id="OOdNx3U51LIYdZ--jJYg-28" value="И" style="text;html=1;align=center;verticalAlign=middle;resizable=0;points=[];autosize=1;strokeColor=none;fillColor=none;" vertex="1" parent="1">
          <mxGeometry x="-45" y="1780" width="30" height="30" as="geometry" />
        </mxCell>
        <mxCell id="OOdNx3U51LIYdZ--jJYg-38" style="edgeStyle=orthogonalEdgeStyle;rounded=0;orthogonalLoop=1;jettySize=auto;html=1;entryX=0.5;entryY=0;entryDx=0;entryDy=0;" edge="1" parent="1" source="OOdNx3U51LIYdZ--jJYg-29" target="OOdNx3U51LIYdZ--jJYg-39">
          <mxGeometry relative="1" as="geometry">
            <mxPoint x="127" y="2230" as="targetPoint" />
          </mxGeometry>
        </mxCell>
        <mxCell id="OOdNx3U51LIYdZ--jJYg-29" value="&lt;font style=&quot;font-size: 14px;&quot;&gt;!move([3,3,0,0,left],[1,3,2,0,right],[&#39;Два каннибала переплывают реку слева направо&#39;])&lt;/font&gt;" style="whiteSpace=wrap;html=1;" vertex="1" parent="1">
          <mxGeometry x="43.25" y="1850" width="176.75" height="100" as="geometry" />
        </mxCell>
        <mxCell id="OOdNx3U51LIYdZ--jJYg-41" style="edgeStyle=orthogonalEdgeStyle;rounded=0;orthogonalLoop=1;jettySize=auto;html=1;entryX=0.5;entryY=0;entryDx=0;entryDy=0;" edge="1" parent="1" source="OOdNx3U51LIYdZ--jJYg-30" target="OOdNx3U51LIYdZ--jJYg-40">
          <mxGeometry relative="1" as="geometry" />
        </mxCell>
        <mxCell id="OOdNx3U51LIYdZ--jJYg-30" value="&lt;font style=&quot;font-size: 14px;&quot;&gt;member([1,3,2,0,right], [[3,3,0,0,left]])&lt;/font&gt;" style="whiteSpace=wrap;html=1;" vertex="1" parent="1">
          <mxGeometry x="251" y="1850" width="184" height="100" as="geometry" />
        </mxCell>
        <mxCell id="OOdNx3U51LIYdZ--jJYg-43" style="edgeStyle=orthogonalEdgeStyle;rounded=0;orthogonalLoop=1;jettySize=auto;html=1;entryX=0.5;entryY=0;entryDx=0;entryDy=0;" edge="1" parent="1" source="OOdNx3U51LIYdZ--jJYg-31" target="OOdNx3U51LIYdZ--jJYg-42">
          <mxGeometry relative="1" as="geometry" />
        </mxCell>
        <mxCell id="OOdNx3U51LIYdZ--jJYg-31" value="&lt;font style=&quot;font-size: 14px;&quot;&gt;!solve([1,3,2,0,right],[0,0,3,3,right],[[1,3,2,0,right],[3,3,0,0,left]],[&#39;Два каннибала переплывают реку слева направо&#39;])&lt;/font&gt;" style="whiteSpace=wrap;html=1;" vertex="1" parent="1">
          <mxGeometry x="475" y="1847.5" width="176" height="105" as="geometry" />
        </mxCell>
        <mxCell id="OOdNx3U51LIYdZ--jJYg-36" value="" style="endArrow=none;dashed=1;html=1;dashPattern=1 3;strokeWidth=2;rounded=0;exitX=0.228;exitY=1;exitDx=0;exitDy=0;exitPerimeter=0;" edge="1" parent="1" source="OOdNx3U51LIYdZ--jJYg-37">
          <mxGeometry width="50" height="50" relative="1" as="geometry">
            <mxPoint x="-60" y="2000" as="sourcePoint" />
            <mxPoint x="880" y="2000" as="targetPoint" />
          </mxGeometry>
        </mxCell>
        <mxCell id="OOdNx3U51LIYdZ--jJYg-37" value="ИЛИ" style="text;html=1;align=center;verticalAlign=middle;resizable=0;points=[];autosize=1;strokeColor=none;fillColor=none;" vertex="1" parent="1">
          <mxGeometry x="-50" y="1970" width="50" height="30" as="geometry" />
        </mxCell>
        <mxCell id="OOdNx3U51LIYdZ--jJYg-39" value="&lt;font style=&quot;font-size: 14px;&quot;&gt;!move([3,3,0,0,left],[1,3,2,0,right],&#39;Два каннибала переплывают реку слева направо&#39;)&lt;/font&gt;" style="whiteSpace=wrap;html=1;" vertex="1" parent="1">
          <mxGeometry x="38.620000000000005" y="2160" width="186" height="105" as="geometry" />
        </mxCell>
        <mxCell id="OOdNx3U51LIYdZ--jJYg-40" value="&lt;font style=&quot;font-size: 14px;&quot;&gt;member([1,3,2,0,right], [[3,3,0,0,left]])&lt;/font&gt;" style="whiteSpace=wrap;html=1;" vertex="1" parent="1">
          <mxGeometry x="254" y="2160" width="176" height="105" as="geometry" />
        </mxCell>
        <mxCell id="OOdNx3U51LIYdZ--jJYg-42" value="&lt;font style=&quot;font-size: 14px;&quot;&gt;!solve([1,3,2,0,right],[0,0,3,3,right],[[1,3,2,0,right],[3,3,0,0,left]],[&#39;Два каннибала переплывают реку слева направо&#39;])&lt;/font&gt;" style="whiteSpace=wrap;html=1;" vertex="1" parent="1">
          <mxGeometry x="475" y="2160" width="176" height="105" as="geometry" />
        </mxCell>
        <mxCell id="OOdNx3U51LIYdZ--jJYg-44" value="&lt;font style=&quot;font-size: 15px;&quot;&gt;CurrentState =&amp;nbsp;[3,3,0,0,left]&lt;br&gt;FinalState =&amp;nbsp;[0,0,3,3,right]&lt;br&gt;&lt;span style=&quot;white-space: pre;&quot;&gt;&#x9;&lt;/span&gt;NextState =&amp;nbsp;[1,3,2,0,right]&lt;br&gt;Visited = [NextState | Visited]&lt;/font&gt;&lt;div&gt;&lt;font style=&quot;font-size: 15px;&quot;&gt;Action&amp;nbsp; = &#39;Два каннибала переплывают реку слева направо&#39;&lt;br&gt;Path = [Action | Path]&lt;/font&gt;&lt;/div&gt;" style="text;html=1;align=center;verticalAlign=middle;whiteSpace=wrap;rounded=0;" vertex="1" parent="1">
          <mxGeometry x="570" y="2025" width="294.5" height="120" as="geometry" />
        </mxCell>
        <mxCell id="OOdNx3U51LIYdZ--jJYg-45" value="&lt;font style=&quot;font-size: 15px;&quot;&gt;CL = 3&lt;br&gt;ML = 3&lt;br&gt;CR = 0&lt;br&gt;MR = 0&lt;br&gt;CR2 = 2&lt;br&gt;CL2 = 1&lt;/font&gt;" style="text;html=1;align=center;verticalAlign=middle;resizable=0;points=[];autosize=1;strokeColor=none;fillColor=none;" vertex="1" parent="1">
          <mxGeometry x="144.62" y="2020" width="80" height="120" as="geometry" />
        </mxCell>
      </root>
    </mxGraphModel>
  </diagram>
</mxfile>
